<svg xmlns="http://www.w3.org/2000/svg" viewBox="0 0 382.3 82.26"><defs><style>.cls-1{fill:#3c78c8;}</style></defs><title>アセット 40</title><g id="レイヤー_2" data-name="レイヤー 2"><g id="レイヤー_1-2" data-name="レイヤー 1"><path class="cls-1" d="M72.3,28.42,92.76,48.7,60.28,81.45c-1.86,1.88-4.78,0-4.35-2.62L63.77,32C64.49,27.67,69.18,25.32,72.3,28.42Z"/><path d="M31.48,1.44,0,33.19,48.71,81.5c1.88,1.86,4.79,0,4.33-2.65L40.05,5C39.29.63,34.58-1.69,31.48,1.44Z"/><path d="M197.21,62.46A10.83,10.83,0,0,1,186.71,73c-5.17,0-9.56-4.31-9.56-12.4V36.38H167.6V60.83c0,13.26,7.74,21.43,17.56,21.43,11.33,0,13.31-7.46,21.69-7.46V36.38h-9.64Z"/><path d="M240.49,35.43a17.48,17.48,0,0,0-11.71,4.65V20.31h-9.55V74.8c8.38,0,9.93,7.46,21.26,7.46,10.68,0,19.29-10.41,19.29-23.41S251.17,35.43,240.49,35.43Zm-1.2,37.88c-5.77,0-10.51-6.54-10.51-14.46s4.74-14.46,10.51-14.46,10.5,6.54,10.5,14.46S245.14,73.31,239.29,73.31Z"/><path d="M291.09,35.43a17.46,17.46,0,0,0-11.71,4.65V20.31h-9.55V74.8c8.38,0,9.92,7.46,21.26,7.46,10.68,0,19.28-10.41,19.28-23.41S301.77,35.43,291.09,35.43Zm-1.2,37.88c-5.77,0-10.51-6.54-10.51-14.46s4.74-14.46,10.51-14.46,10.5,6.54,10.5,14.46S295.74,73.31,289.89,73.31Z"/><rect x="320.53" y="20.31" width="9.56" height="61"/><path d="M382,60c2.32-13.69-7.23-24.54-19.8-24.54C349,35.43,340,46,340,59c0,12.83,8.61,23.24,23.16,23.24a23.09,23.09,0,0,0,17.39-8.09l-5-6c-2.5,2.15-6.46,5.16-11.54,5.16-9.38,0-14-7.23-13.6-13.34ZM362.24,44.39c5.94,0,9.38,3.27,9.38,7.66H351.73A10.82,10.82,0,0,1,362.24,44.39Z"/><polygon points="118.49 55.33 146.74 55.33 146.74 81.32 156.29 81.32 156.29 20.31 146.74 20.31 146.74 45.77 118.49 45.77 118.49 20.31 108.93 20.31 108.93 81.32 118.49 81.32 118.49 55.33"/></g></g></svg>